# xmcd
#
# Track frame offsets: 
#        150
#        33229
#        52416
#        73439
#        90260
#        107464
#        122846
#        149820
#        165667
#        183246
#        199640
#        219343
#        243922
#        269122
#
# Disc length: 3862 seconds
#
# Revision: 0
# Processed by: cddbd v1.5.2PL0 Copyright (c) Steve Scherf et al.
# Submitted via: ExactAudioCopyFreeDBPlugin 1.0
#
DISCID=d50f140e
DTITLE=Swamp Dogg - The White Man Made Me Do It
DYEAR=2015
DGENRE=R&B
TTITLE0=The White Man Made Me Do It
TTITLE1=Lying Lying Lying Woman
TTITLE2=Hey Renae
TTITLE3=You Send Me
TTITLE4=Let Me Be Wrong
TTITLE5=Your Cash Ain't Nothing But Trash
TTITLE6=I'm So Happy
TTITLE7=That's What Lonesome Is
TTITLE8=Yeah, Yeah, Yeah, Yeah
TTITLE9=Where Is Sly
TTITLE10=Smokey Joe's Café
TTITLE11=Light a Candle-Ring a Bell
TTITLE12=Prejudice Is Alive and Well
TTITLE13=If That Ain't the Blues Nothing Is
EXTD=
EXTT0=
EXTT1=
EXTT2=
EXTT3=
EXTT4=
EXTT5=
EXTT6=
EXTT7=
EXTT8=
EXTT9=
EXTT10=
EXTT11=
EXTT12=
EXTT13=
PLAYORDER=
